<mxfile host="app.diagrams.net" agent="Mozilla/5.0 (Windows NT 10.0; Win64; x64) AppleWebKit/537.36 (KHTML, like Gecko) Chrome/129.0.0.0 Safari/537.36 Edg/129.0.0.0" version="24.7.16">
  <diagram name="Trang-1" id="mQSTmGKFa3K6hvDLOO5k">
    <mxGraphModel dx="1042" dy="583" grid="1" gridSize="10" guides="1" tooltips="1" connect="1" arrows="1" fold="1" page="1" pageScale="1" pageWidth="827" pageHeight="1169" math="0" shadow="0">
      <root>
        <mxCell id="0" />
        <mxCell id="1" parent="0" />
        <mxCell id="bmuoetvA_6KD5d-4uN97-7" style="rounded=0;orthogonalLoop=1;jettySize=auto;html=1;entryX=0.5;entryY=0;entryDx=0;entryDy=0;strokeWidth=2;endArrow=blockThin;endFill=1;" edge="1" parent="1" source="PxvMtfoWUJHpTSwyp4GO-1" target="bmuoetvA_6KD5d-4uN97-3">
          <mxGeometry relative="1" as="geometry" />
        </mxCell>
        <mxCell id="PxvMtfoWUJHpTSwyp4GO-1" value="&lt;font style=&quot;font-size: 16px;&quot;&gt;Conv2D&lt;/font&gt;" style="rounded=0;whiteSpace=wrap;html=1;fillColor=#b0e3e6;strokeColor=#0e8088;" parent="1" vertex="1">
          <mxGeometry x="180" y="160" width="100" height="40" as="geometry" />
        </mxCell>
        <mxCell id="PxvMtfoWUJHpTSwyp4GO-2" value="" style="endArrow=blockThin;html=1;rounded=0;strokeWidth=2;endFill=1;entryX=0.5;entryY=0;entryDx=0;entryDy=0;exitX=0.5;exitY=1;exitDx=0;exitDy=0;" parent="1" source="PxvMtfoWUJHpTSwyp4GO-4" target="PxvMtfoWUJHpTSwyp4GO-1" edge="1">
          <mxGeometry width="50" height="50" relative="1" as="geometry">
            <mxPoint x="180" y="160" as="sourcePoint" />
            <mxPoint x="300" y="160" as="targetPoint" />
          </mxGeometry>
        </mxCell>
        <mxCell id="PxvMtfoWUJHpTSwyp4GO-4" value="&lt;font style=&quot;font-size: 16px;&quot;&gt;input_1&lt;/font&gt;" style="rounded=0;whiteSpace=wrap;html=1;fillColor=#ffe6cc;strokeColor=#d79b00;" parent="1" vertex="1">
          <mxGeometry x="180" y="80" width="100" height="40" as="geometry" />
        </mxCell>
        <mxCell id="PxvMtfoWUJHpTSwyp4GO-5" value="&lt;span style=&quot;font-size: 16px;&quot;&gt;input_2&lt;/span&gt;" style="rounded=0;whiteSpace=wrap;html=1;fillColor=#ffe6cc;strokeColor=#d79b00;" parent="1" vertex="1">
          <mxGeometry x="280" y="480" width="100" height="40" as="geometry" />
        </mxCell>
        <mxCell id="bmuoetvA_6KD5d-4uN97-9" style="edgeStyle=none;shape=connector;rounded=0;orthogonalLoop=1;jettySize=auto;html=1;entryX=0.5;entryY=0;entryDx=0;entryDy=0;strokeColor=default;strokeWidth=2;align=center;verticalAlign=middle;fontFamily=Helvetica;fontSize=11;fontColor=default;labelBackgroundColor=default;endArrow=blockThin;endFill=1;" edge="1" parent="1" source="bmuoetvA_6KD5d-4uN97-3" target="bmuoetvA_6KD5d-4uN97-5">
          <mxGeometry relative="1" as="geometry" />
        </mxCell>
        <mxCell id="bmuoetvA_6KD5d-4uN97-3" value="&lt;span style=&quot;font-size: 16px;&quot;&gt;BatchNorm&lt;/span&gt;" style="rounded=0;whiteSpace=wrap;html=1;fillColor=#dae8fc;strokeColor=#6c8ebf;" vertex="1" parent="1">
          <mxGeometry x="180" y="240" width="100" height="40" as="geometry" />
        </mxCell>
        <mxCell id="bmuoetvA_6KD5d-4uN97-12" style="shape=connector;rounded=0;orthogonalLoop=1;jettySize=auto;html=1;exitX=0.5;exitY=1;exitDx=0;exitDy=0;entryX=0.25;entryY=0;entryDx=0;entryDy=0;strokeColor=default;strokeWidth=2;align=center;verticalAlign=middle;fontFamily=Helvetica;fontSize=11;fontColor=default;labelBackgroundColor=default;endArrow=blockThin;endFill=1;" edge="1" parent="1" source="bmuoetvA_6KD5d-4uN97-5" target="bmuoetvA_6KD5d-4uN97-11">
          <mxGeometry relative="1" as="geometry" />
        </mxCell>
        <mxCell id="bmuoetvA_6KD5d-4uN97-5" value="&lt;span style=&quot;font-size: 16px;&quot;&gt;ReLU&lt;/span&gt;" style="rounded=0;whiteSpace=wrap;html=1;fillColor=#f5f5f5;strokeColor=#666666;fontColor=#333333;" vertex="1" parent="1">
          <mxGeometry x="180" y="320" width="100" height="40" as="geometry" />
        </mxCell>
        <mxCell id="bmuoetvA_6KD5d-4uN97-17" style="edgeStyle=none;shape=connector;rounded=0;orthogonalLoop=1;jettySize=auto;html=1;entryX=0.5;entryY=0;entryDx=0;entryDy=0;strokeColor=default;strokeWidth=2;align=center;verticalAlign=middle;fontFamily=Helvetica;fontSize=11;fontColor=default;labelBackgroundColor=default;endArrow=blockThin;endFill=1;" edge="1" parent="1" source="bmuoetvA_6KD5d-4uN97-11" target="PxvMtfoWUJHpTSwyp4GO-5">
          <mxGeometry relative="1" as="geometry" />
        </mxCell>
        <mxCell id="bmuoetvA_6KD5d-4uN97-11" value="&lt;font style=&quot;font-size: 16px;&quot;&gt;Add&lt;/font&gt;" style="rounded=0;whiteSpace=wrap;html=1;fillColor=#d5e8d4;strokeColor=#82b366;" vertex="1" parent="1">
          <mxGeometry x="280" y="400" width="100" height="40" as="geometry" />
        </mxCell>
        <mxCell id="bmuoetvA_6KD5d-4uN97-14" style="shape=connector;rounded=0;orthogonalLoop=1;jettySize=auto;html=1;entryX=0.75;entryY=0;entryDx=0;entryDy=0;strokeColor=default;strokeWidth=2;align=center;verticalAlign=middle;fontFamily=Helvetica;fontSize=11;fontColor=default;labelBackgroundColor=default;endArrow=blockThin;endFill=1;elbow=vertical;" edge="1" parent="1" source="bmuoetvA_6KD5d-4uN97-13" target="bmuoetvA_6KD5d-4uN97-11">
          <mxGeometry relative="1" as="geometry" />
        </mxCell>
        <mxCell id="bmuoetvA_6KD5d-4uN97-13" value="&lt;span style=&quot;font-size: 16px;&quot;&gt;input_2&lt;/span&gt;" style="rounded=0;whiteSpace=wrap;html=1;fillColor=#ffe6cc;strokeColor=#d79b00;" vertex="1" parent="1">
          <mxGeometry x="380" y="80" width="100" height="40" as="geometry" />
        </mxCell>
        <mxCell id="bmuoetvA_6KD5d-4uN97-20" value="" style="endArrow=blockThin;html=1;rounded=0;strokeWidth=2;endFill=1;entryX=0.5;entryY=0;entryDx=0;entryDy=0;exitX=0.5;exitY=1;exitDx=0;exitDy=0;" edge="1" parent="1" source="bmuoetvA_6KD5d-4uN97-21" target="bmuoetvA_6KD5d-4uN97-26">
          <mxGeometry width="50" height="50" relative="1" as="geometry">
            <mxPoint x="620" y="160" as="sourcePoint" />
            <mxPoint x="670" y="160" as="targetPoint" />
          </mxGeometry>
        </mxCell>
        <mxCell id="bmuoetvA_6KD5d-4uN97-21" value="&lt;font style=&quot;font-size: 16px;&quot;&gt;input_1&lt;/font&gt;" style="rounded=0;whiteSpace=wrap;html=1;fillColor=#ffe6cc;strokeColor=#d79b00;" vertex="1" parent="1">
          <mxGeometry x="570" y="80" width="100" height="40" as="geometry" />
        </mxCell>
        <mxCell id="bmuoetvA_6KD5d-4uN97-22" value="&lt;span style=&quot;font-size: 16px;&quot;&gt;input_2&lt;/span&gt;" style="rounded=0;whiteSpace=wrap;html=1;fillColor=#ffe6cc;strokeColor=#d79b00;" vertex="1" parent="1">
          <mxGeometry x="700" y="480" width="100" height="40" as="geometry" />
        </mxCell>
        <mxCell id="bmuoetvA_6KD5d-4uN97-25" style="shape=connector;rounded=0;orthogonalLoop=1;jettySize=auto;html=1;exitX=0.5;exitY=1;exitDx=0;exitDy=0;entryX=0.5;entryY=0;entryDx=0;entryDy=0;strokeColor=default;strokeWidth=2;align=center;verticalAlign=middle;fontFamily=Helvetica;fontSize=11;fontColor=default;labelBackgroundColor=default;endArrow=blockThin;endFill=1;" edge="1" parent="1" source="bmuoetvA_6KD5d-4uN97-26" target="bmuoetvA_6KD5d-4uN97-31">
          <mxGeometry relative="1" as="geometry" />
        </mxCell>
        <mxCell id="bmuoetvA_6KD5d-4uN97-26" value="&lt;span style=&quot;font-size: 16px;&quot;&gt;ConvBnReLU&lt;/span&gt;" style="rounded=0;whiteSpace=wrap;html=1;fillColor=#d0cee2;strokeColor=#56517e;" vertex="1" parent="1">
          <mxGeometry x="560" y="160" width="120" height="40" as="geometry" />
        </mxCell>
        <mxCell id="bmuoetvA_6KD5d-4uN97-27" style="edgeStyle=none;shape=connector;rounded=0;orthogonalLoop=1;jettySize=auto;html=1;entryX=0.5;entryY=0;entryDx=0;entryDy=0;strokeColor=default;strokeWidth=2;align=center;verticalAlign=middle;fontFamily=Helvetica;fontSize=11;fontColor=default;labelBackgroundColor=default;endArrow=blockThin;endFill=1;exitX=0.5;exitY=1;exitDx=0;exitDy=0;" edge="1" parent="1" source="bmuoetvA_6KD5d-4uN97-36" target="bmuoetvA_6KD5d-4uN97-22">
          <mxGeometry relative="1" as="geometry" />
        </mxCell>
        <mxCell id="bmuoetvA_6KD5d-4uN97-37" style="edgeStyle=none;shape=connector;rounded=0;orthogonalLoop=1;jettySize=auto;html=1;entryX=0.5;entryY=0;entryDx=0;entryDy=0;strokeColor=default;strokeWidth=2;align=center;verticalAlign=middle;fontFamily=Helvetica;fontSize=11;fontColor=default;labelBackgroundColor=default;endArrow=blockThin;endFill=1;" edge="1" parent="1" source="bmuoetvA_6KD5d-4uN97-28" target="bmuoetvA_6KD5d-4uN97-36">
          <mxGeometry relative="1" as="geometry" />
        </mxCell>
        <mxCell id="bmuoetvA_6KD5d-4uN97-28" value="&lt;font style=&quot;font-size: 16px;&quot;&gt;Add&lt;/font&gt;" style="rounded=0;whiteSpace=wrap;html=1;fillColor=#d5e8d4;strokeColor=#82b366;" vertex="1" parent="1">
          <mxGeometry x="700" y="320" width="100" height="40" as="geometry" />
        </mxCell>
        <mxCell id="bmuoetvA_6KD5d-4uN97-34" style="edgeStyle=orthogonalEdgeStyle;shape=connector;rounded=0;orthogonalLoop=1;jettySize=auto;html=1;entryX=0.5;entryY=0;entryDx=0;entryDy=0;strokeColor=default;strokeWidth=2;align=center;verticalAlign=middle;fontFamily=Helvetica;fontSize=11;fontColor=default;labelBackgroundColor=default;endArrow=blockThin;endFill=1;curved=1;" edge="1" parent="1" source="bmuoetvA_6KD5d-4uN97-30" target="bmuoetvA_6KD5d-4uN97-33">
          <mxGeometry relative="1" as="geometry" />
        </mxCell>
        <mxCell id="bmuoetvA_6KD5d-4uN97-30" value="&lt;span style=&quot;font-size: 16px;&quot;&gt;input_2&lt;/span&gt;" style="rounded=0;whiteSpace=wrap;html=1;fillColor=#ffe6cc;strokeColor=#d79b00;" vertex="1" parent="1">
          <mxGeometry x="780" y="80" width="100" height="40" as="geometry" />
        </mxCell>
        <mxCell id="bmuoetvA_6KD5d-4uN97-32" style="shape=connector;rounded=0;orthogonalLoop=1;jettySize=auto;html=1;entryX=0.25;entryY=0;entryDx=0;entryDy=0;strokeColor=default;strokeWidth=2;align=center;verticalAlign=middle;fontFamily=Helvetica;fontSize=11;fontColor=default;labelBackgroundColor=default;endArrow=blockThin;endFill=1;" edge="1" parent="1" source="bmuoetvA_6KD5d-4uN97-31" target="bmuoetvA_6KD5d-4uN97-28">
          <mxGeometry relative="1" as="geometry" />
        </mxCell>
        <mxCell id="bmuoetvA_6KD5d-4uN97-31" value="&lt;font style=&quot;font-size: 16px;&quot;&gt;Quant&lt;/font&gt;" style="rounded=0;whiteSpace=wrap;html=1;fillColor=#f8cecc;strokeColor=#b85450;" vertex="1" parent="1">
          <mxGeometry x="620" y="240" width="100" height="40" as="geometry" />
        </mxCell>
        <mxCell id="bmuoetvA_6KD5d-4uN97-35" style="edgeStyle=none;shape=connector;rounded=0;orthogonalLoop=1;jettySize=auto;html=1;entryX=0.75;entryY=0;entryDx=0;entryDy=0;strokeColor=default;strokeWidth=2;align=center;verticalAlign=middle;fontFamily=Helvetica;fontSize=11;fontColor=default;labelBackgroundColor=default;endArrow=blockThin;endFill=1;" edge="1" parent="1" source="bmuoetvA_6KD5d-4uN97-33" target="bmuoetvA_6KD5d-4uN97-28">
          <mxGeometry relative="1" as="geometry" />
        </mxCell>
        <mxCell id="bmuoetvA_6KD5d-4uN97-33" value="&lt;font style=&quot;font-size: 16px;&quot;&gt;Quant&lt;/font&gt;" style="rounded=0;whiteSpace=wrap;html=1;fillColor=#f8cecc;strokeColor=#b85450;" vertex="1" parent="1">
          <mxGeometry x="780" y="240" width="100" height="40" as="geometry" />
        </mxCell>
        <mxCell id="bmuoetvA_6KD5d-4uN97-36" value="&lt;font style=&quot;font-size: 16px;&quot;&gt;DeQuant&lt;/font&gt;" style="rounded=0;whiteSpace=wrap;html=1;fillColor=#fad9d5;strokeColor=#ae4132;" vertex="1" parent="1">
          <mxGeometry x="700" y="400" width="100" height="40" as="geometry" />
        </mxCell>
      </root>
    </mxGraphModel>
  </diagram>
</mxfile>
